<mxfile host="app.diagrams.net" modified="2023-10-07T08:08:25.044Z" agent="Mozilla/5.0 (Windows NT 10.0; Win64; x64) AppleWebKit/537.36 (KHTML, like Gecko) Chrome/117.0.0.0 Safari/537.36" version="21.7.5" etag="Y0PBpcZVRR0SPUgV_pah" type="github">
  <diagram name="第 1 页" id="ooRHN3ei1qlVZfJjUOCk">
    <mxGraphModel>
      <root>
        <mxCell id="0" />
        <mxCell id="1" parent="0" />
      </root>
    </mxGraphModel>
  </diagram>
</mxfile>
